# File created by Blade
# Date/Time:  Tue Jan 27 20:08:00 2015
#---------------------------------------------------------
:version 1.10
:name HOM
:units
  mass 1.0
  length 1.000000
  angle deg
:documentation
     Acclaim Skeleton File
:root
   axis xyz
   order TX TY TZ RX RY RZ
   position 0.000000 0.000000 0.000000
   orientation 0 0 0
:bonedata
   begin
      id 1
      name Spine_dum
      direction 0.000000 1.000000 0.000000
      length 6.116652
      axis 0.0 0.0 0.0 xyz
   end
   begin
      id 2
      name LeftUpLeg_dum
      direction 1.000000 0.000000 0.000000
      length 4.711765
      axis 0.0 0.0 0.0 xyz
   end
   begin
      id 3
      name RightUpLeg_dum
      direction -1.000000 0.000000 0.000000
      length 4.711765
      axis 0.0 0.0 0.0 xyz
   end
   begin
      id 4
      name Spine
      direction 0.000000 1.000000 0.000000
      length 0.000000
      axis 0.0 0.0 0.0 xyz
      dof rx ry rz
   end
   begin
      id 5
      name Spine_dum1
      direction 0.000000 1.000000 0.000000
      length 15.225563
      axis 0.0 0.0 0.0 xyz
   end
   begin
      id 6
      name Spine_dum2
      direction 0.000000 1.000000 0.000000
      length 8.977654
      axis 0.0 0.0 0.0 xyz
   end
   begin
      id 7
      name Spine_dum3
      direction 0.000000 1.000000 0.000000
      length 8.977654
      axis 0.0 0.0 0.0 xyz
   end
   begin
      id 8
      name Head
      direction 0.000000 1.000000 0.000000
      length 4.527550
      axis 0.0 0.0 0.0 xyz
      dof rx ry rz
   end
   begin
      id 9
      name LeftShoulder
      direction 1.000000 0.000000 0.000000
      length 7.110130
      axis 0.0 0.0 -90.0 xyz
      dof rx ry rz
   end
   begin
      id 10
      name LeftArm
      direction 1.000000 0.000000 0.000000
      length 10.398341
      axis 0.0 0.0 -90.0 xyz
      dof rx ry rz
   end
   begin
      id 11
      name LeftForeArm
      direction 1.000000 0.000000 0.000000
      length 8.888997
      axis 0.0 0.0 -90.0 xyz
      dof ry rz rx
   end
   begin
      id 12
      name LeftHand
      direction 0.000000 0.000000 0.000000
      length 0.000000
      axis 0.0 0.0 -90.0 xyz
      dof rx ry rz
   end
   begin
      id 13
      name LeftHand_dum1
      direction 0.000000 0.000000 0.000000
      length 0.000000
      axis 0.0 0.0 -90.0 xyz
   end
   begin
      id 14
      name LeftHand_dum2
      direction 1.000000 0.000000 0.000000
      length 3.937000
      axis 0.0 0.0 -90.0 xyz
   end
   begin
      id 15
      name LeftHandThumb1
      direction 0.000000 0.000000 1.000000
      length 3.937000
      axis 0.0 0.0 -90.0 xyz
      dof rx rz ry
   end
   begin
      id 16
      name RightShoulder
      direction -1.000000 0.000000 0.000000
      length 7.110130
      axis 0.0 0.0 90.0 xyz
      dof rx ry rz
   end
   begin
      id 17
      name RightArm
      direction -1.000000 0.000000 0.000000
      length 10.398341
      axis 0.0 0.0 90.0 xyz
      dof rx ry rz
   end
   begin
      id 18
      name RightForeArm
      direction -1.000000 0.000000 0.000000
      length 8.888997
      axis 0.0 0.0 90.0 xyz
      dof ry rz rx
   end
   begin
      id 19
      name RightHand
      direction 0.000000 0.000000 0.000000
      length 0.000000
      axis 0.0 0.0 90.0 xyz
      dof rx ry rz
   end
   begin
      id 20
      name RightHand_dum1
      direction 0.000000 0.000000 0.000000
      length 0.000000
      axis 0.0 0.0 90.0 xyz
   end
   begin
      id 21
      name RightHand_dum2
      direction -1.000000 0.000000 0.000000
      length 3.937000
      axis 0.0 0.0 90.0 xyz
   end
   begin
      id 22
      name RightHandThumb1
      direction 0.000000 0.000000 1.000000
      length 3.937000
      axis 0.0 0.0 90.0 xyz
      dof rx rz ry
   end
   begin
      id 23
      name LeftUpLeg
      direction 0.000000 -1.000000 0.000000
      length 15.510451
      axis 0.0 0.0 0.0 xyz
      dof rx ry rz
   end
   begin
      id 24
      name LeftLeg
      direction 0.000000 -1.000000 0.000000
      length 14.858061
      axis 0.0 0.0 0.0 xyz
      dof rx ry rz
   end
   begin
      id 25
      name LeftFoot
      direction 0.000000 -0.258819 0.965926
      length 5.128852
      axis 15.0 0.0 0.0 xyz
      dof rx ry rz
   end
   begin
      id 26
      name LeftToeBase
      direction 0.000000 0.000000 1.000000
      length 2.952750
      axis 0.0 0.0 0.0 xyz
      dof rx ry rz
   end
   begin
      id 27
      name RightUpLeg
      direction 0.000000 -1.000000 0.000000
      length 15.510451
      axis 0.0 0.0 0.0 xyz
      dof rx ry rz
   end
   begin
      id 28
      name RightLeg
      direction 0.000000 -1.000000 0.000000
      length 14.858061
      axis 0.0 0.0 0.0 xyz
      dof rx ry rz
   end
   begin
      id 29
      name RightFoot
      direction 0.000000 -0.258819 0.965926
      length 5.128852
      axis 15.0 0.0 0.0 xyz
      dof rx ry rz
   end
   begin
      id 30
      name RightToeBase
      direction 0.000000 0.000000 1.000000
      length 2.952750
      axis 0.0 0.0 0.0 xyz
      dof rx ry rz
   end
:hierarchy
   begin
      root Spine_dum LeftUpLeg_dum RightUpLeg_dum
      Spine_dum Spine
      LeftUpLeg_dum LeftUpLeg
      RightUpLeg_dum RightUpLeg
      Spine Spine_dum1 Spine_dum2 Spine_dum3
      Spine_dum1 Head
      Spine_dum2 LeftShoulder
      Spine_dum3 RightShoulder
      LeftShoulder LeftArm
      LeftArm LeftForeArm
      LeftForeArm LeftHand
      LeftHand LeftHand_dum1 LeftHand_dum2
      LeftHand_dum1 LeftHandThumb1
      RightShoulder RightArm
      RightArm RightForeArm
      RightForeArm RightHand
      RightHand RightHand_dum1 RightHand_dum2
      RightHand_dum1 RightHandThumb1
      LeftUpLeg LeftLeg
      LeftLeg LeftFoot
      LeftFoot LeftToeBase
      RightUpLeg RightLeg
      RightLeg RightFoot
      RightFoot RightToeBase
   end

# File created by Blade
# Date/Time:  Tue Jan 27 20:07:51 2015
# Frame Rate: 120.000 fps
#------------------------------------------------------
:FULLY-SPECIFIED
:DEGREES
129
root 6.004962 32.210624 -4.492537 -7.143112 16.122531 0.387798
Spine 6.203770 5.031659 -1.815856
Head 10.484801 -15.993812 1.779917
LeftShoulder -14.999569 1.849224 30.283461
LeftArm -7.674727 -16.260502 -85.455133
LeftForeArm -4.215849 -0.000000 120.223657
LeftHand 5.346858 0.000000 14.292771
LeftHandThumb1 -26.253704 0.000000 33.147579
RightShoulder -19.554643 -18.129303 -22.730176
RightArm 16.114170 -33.454213 92.566564
RightForeArm -15.219794 -0.000000 23.822161
RightHand 15.842090 -0.000000 3.665559
RightHandThumb1 -24.326973 -0.000000 -32.862282
LeftUpLeg 10.679218 -7.375571 -8.909588
LeftLeg 2.489554 -0.000000 -0.000000
LeftFoot -15.979346 16.352533 -16.021415
LeftToeBase 16.029406 -0.000000 -0.000000
RightUpLeg -33.058627 10.393279 5.789191
RightLeg 62.761527 -0.000000 -0.000000
RightFoot -5.433066 -27.025701 23.320204
RightToeBase 12.795885 -0.000000 -0.000000
130
root 6.012272 32.208840 -4.494825 -7.119896 16.031573 0.393495
Spine 6.195471 5.097657 -1.827180
Head 10.425924 -15.964622 1.789239
LeftShoulder -15.035365 1.922920 30.282680
LeftArm -7.624650 -16.224963 -85.436748
LeftForeArm -4.364833 -0.000000 120.250440
LeftHand 5.346319 -0.000000 14.154185
LeftHandThumb1 -26.253704 0.000000 33.147579
RightShoulder -19.506690 -18.107057 -22.733220
RightArm 16.178445 -33.545816 92.512915
RightForeArm -15.229402 -0.000000 23.798843
RightHand 15.845556 -0.000000 3.702220
RightHandThumb1 -24.326973 -0.000000 -32.862282
LeftUpLeg 10.658702 -7.395147 -8.939720
LeftLeg 2.494787 -0.000000 -0.000000
LeftFoot -15.996277 16.466261 -15.963673
LeftToeBase 15.950003 -0.000000 -0.000000
RightUpLeg -32.995344 10.352031 5.808666
RightLeg 62.635924 -0.000000 -0.000000
RightFoot -5.354292 -27.078198 23.220524
RightToeBase 13.019712 -0.000000 -0.000000
131
root 6.019675 32.206968 -4.498840 -7.090982 15.930106 0.396250
Spine 6.178944 5.171441 -1.834975
Head 10.379652 -15.929957 1.805286
LeftShoulder -15.043813 1.967209 30.293196
LeftArm -7.624268 -16.194110 -85.419612
LeftForeArm -4.474708 0.000000 120.291757
LeftHand 5.373960 -0.000000 14.149912
LeftHandThumb1 -26.253704 0.000000 33.147579
RightShoulder -19.462377 -18.045163 -22.758055
RightArm 16.221717 -33.658413 92.479738
RightForeArm -15.300879 -0.000000 23.733292
RightHand 16.022125 -0.000000 3.760649
RightHandThumb1 -24.326973 -0.000000 -32.862282
LeftUpLeg 10.626773 -7.436813 -8.970330
LeftLeg 2.505702 -0.000000 -0.000000
LeftFoot -16.044819 16.576953 -15.961420
LeftToeBase 16.027516 -0.000000 -0.000000
RightUpLeg -32.938632 10.290474 5.828818
RightLeg 62.507032 -0.000000 -0.000000
RightFoot -5.243090 -27.158185 23.046423
RightToeBase 13.152233 -0.000000 -0.000000
132
root 6.026632 32.205231 -4.502848 -7.064370 15.826669 0.396747
Spine 6.167425 5.249084 -1.839423
Head 10.327127 -15.904274 1.826640
LeftShoulder -15.053926 2.011175 30.299553
LeftArm -7.622440 -16.149345 -85.406743
LeftForeArm -4.550072 -0.000000 120.346693
LeftHand 5.372514 -0.000000 14.170073
LeftHandThumb1 -26.253704 0.000000 33.147579
RightShoulder -19.430954 -17.964226 -22.774117
RightArm 16.245958 -33.769134 92.444694
RightForeArm -15.344901 -0.000000 23.676253
RightHand 16.040996 -0.000000 3.680917
RightHandThumb1 -24.326973 -0.000000 -32.862282
LeftUpLeg 10.596315 -7.465443 -8.995417
LeftLeg 2.514095 -0.000000 -0.000000
LeftFoot -16.094256 16.703837 -15.941509
LeftToeBase 16.107771 -0.000000 -0.000000
RightUpLeg -32.885658 10.219773 5.855972
RightLeg 62.383666 -0.000000 -0.000000
RightFoot -5.133279 -27.273851 22.929766
RightToeBase 13.130002 -0.000000 -0.000000
